<?xml version="1.0" encoding="UTF-8" standalone="no"?>
<!-- Created with Inkscape (http://www.inkscape.org/) -->

<svg
   xmlns:dc="http://purl.org/dc/elements/1.1/"
   xmlns:cc="http://creativecommons.org/ns#"
   xmlns:rdf="http://www.w3.org/1999/02/22-rdf-syntax-ns#"
   xmlns:svg="http://www.w3.org/2000/svg"
   xmlns="http://www.w3.org/2000/svg"
   xmlns:sodipodi="http://sodipodi.sourceforge.net/DTD/sodipodi-0.dtd"
   xmlns:inkscape="http://www.inkscape.org/namespaces/inkscape"
   width="1200"
   height="630"
   viewBox="0 0 1200 630.00001"
   id="svg2"
   version="1.1"
   inkscape:version="0.91 r13725"
   sodipodi:docname="railsgirls.svg">
  <defs
     id="defs4" />
  <sodipodi:namedview
     id="base"
     pagecolor="#ffffff"
     bordercolor="#666666"
     borderopacity="1.0"
     inkscape:pageopacity="0.0"
     inkscape:pageshadow="2"
     inkscape:zoom="0.49497475"
     inkscape:cx="100.35893"
     inkscape:cy="367.51984"
     inkscape:document-units="px"
     inkscape:current-layer="layer1"
     showgrid="false"
     inkscape:window-width="1920"
     inkscape:window-height="1024"
     inkscape:window-x="0"
     inkscape:window-y="0"
     inkscape:window-maximized="1"
     units="px" />
  <metadata
     id="metadata7">
    <rdf:RDF>
      <cc:Work
         rdf:about="">
        <dc:format>image/svg+xml</dc:format>
        <dc:type
           rdf:resource="http://purl.org/dc/dcmitype/StillImage" />
        <dc:title />
      </cc:Work>
    </rdf:RDF>
  </metadata>
  <g
     inkscape:label="Layer 1"
     inkscape:groupmode="layer"
     id="layer1"
     transform="translate(0,-422.36216)">
    <rect
       style="opacity:1;fill:#d3360f;fill-opacity:0.94117647;stroke:none;stroke-width:1;stroke-linecap:round;stroke-linejoin:miter;stroke-miterlimit:4;stroke-dasharray:none;stroke-opacity:1"
       id="rect4147"
       width="1200"
       height="630"
       x="0"
       y="422.36215" />
    <text
       xml:space="preserve"
       style="font-style:normal;font-variant:normal;font-weight:bold;font-stretch:normal;font-size:181.17810059px;line-height:0%;font-family:sans-serif;-inkscape-font-specification:'sans-serif Bold';letter-spacing:-5.17651701px;word-spacing:0px;fill:#ffffff;fill-opacity:1;stroke:none;stroke-width:1px;stroke-linecap:butt;stroke-linejoin:miter;stroke-opacity:1"
       x="214.33946"
       y="1019.8705"
       id="text4149"
       sodipodi:linespacing="0%"><tspan
         sodipodi:role="line"
         id="tspan4151"
         x="214.33946"
         y="1019.8705"
         style="font-style:bold;font-variant:normal;font-weight:bold;font-stretch:expanded;font-size:168.23680115px;font-family:Expressway;-inkscape-font-specification:'Expressway Expanded';letter-spacing:0px;fill:#ffffff;fill-opacity:1">Rails Girls</tspan></text>
    <g
       id="g4672"
       transform="translate(54.545575,17.934302)">
      <path
         inkscape:connector-curvature="0"
         id="rect4153"
         d="m 239.08404,574.56252 0,32.03742 32.03742,0 32.03742,0 0,-32.03742 -32.03742,0 -32.03742,0 z m 64.07484,32.03742 0,32.03742 32.03742,0 0,-32.03742 -32.03742,0 z m 32.03742,0 32.03298,0 0,-32.03742 -32.03298,0 0,32.03742 z m -96.11226,0 -32.03298,0 0,32.03742 0,32.0374 32.03298,0 0,-32.0374 0,-32.03742 z m 0,64.07482 0,32.033 32.03742,0 0,-32.033 -32.03742,0 z m 32.03742,32.033 0,32.03742 32.03742,0 0,-32.03742 -32.03742,0 z m 32.03742,32.03742 0,32.03742 32.03742,0 0,-32.03742 -32.03742,0 z m 32.03742,0 32.03298,0 0,-32.03742 -32.03298,0 0,32.03742 z m 32.03742,-160.18266 0,32.03742 32.03298,0 0,-32.03742 -32.03298,0 z m 32.03298,32.03742 0,32.03742 0,32.0374 32.03742,0 0,-32.0374 0,-32.03742 -32.03742,0 z m 0,64.07482 -32.03298,0 0,32.033 32.03298,0 0,-32.033 z"
         style="opacity:1;fill:#ffffff;fill-opacity:1;stroke:none;stroke-width:1;stroke-linecap:round;stroke-linejoin:miter;stroke-miterlimit:4;stroke-dasharray:none;stroke-opacity:1" />
      <g
         transform="translate(112.94373,-22.223356)"
         id="g4539">
        <path
           inkscape:connector-curvature="0"
           style="opacity:1;fill:#ffffff;fill-opacity:1;stroke:none;stroke-width:1;stroke-linecap:round;stroke-linejoin:miter;stroke-miterlimit:4;stroke-dasharray:none;stroke-opacity:1"
           d="m 578.68945,122.4668 0,32.03711 32.03711,0 0,-32.03711 -32.03711,0 z m 32.03711,32.03711 0,32.03711 0,32.0371 0,32.03711 32.03711,0 0,-32.03711 0,-32.0371 0,-32.03711 -32.03711,0 z m 0,96.11132 -32.03711,0 0,32.03711 32.03711,0 0,-32.03711 z m -32.03711,32.03711 -32.03906,0 0,32.03907 0,32.03711 32.03906,0 0,-32.03711 0,-32.03907 z m 0,64.07618 0,32.0371 32.03711,0 32.03711,0 32.03711,0 32.03711,0 32.03711,0 0,-32.0371 -32.03711,0 -32.03711,0 -32.03711,0 -32.03711,0 -32.03711,0 z m 160.18555,0 32.03906,0 0,-32.03711 0,-32.03907 -32.03906,0 0,32.03907 0,32.03711 z m 0,-64.07618 0,-32.03711 -32.03711,0 0,32.03711 32.03711,0 z m -32.03711,-32.03711 0,-32.03711 0,-32.0371 0,-32.03711 -32.03711,0 0,32.03711 0,32.0371 0,32.03711 32.03711,0 z m 0,-96.11132 32.03711,0 0,-32.03711 -32.03711,0 0,32.03711 z"
           transform="translate(0,422.36216)"
           id="rect4153-3" />
        <path
           inkscape:connector-curvature="0"
           style="opacity:1;fill:#f47000;fill-opacity:1;stroke:none;stroke-width:1;stroke-linecap:round;stroke-linejoin:miter;stroke-miterlimit:4;stroke-dasharray:none;stroke-opacity:1"
           d="m 578.68945,282.65234 0,32.03907 0,32.03711 32.03711,0 32.03711,0 32.03711,0 32.03711,0 32.03711,0 0,-32.03711 0,-32.03907 -32.03711,0 -32.03711,0 -32.03711,0 -32.03711,0 -32.03711,0 z"
           transform="translate(0,422.36216)"
           id="rect4153-3-6-7-5-0-6" />
        <path
           style="opacity:1;fill:#f47000;fill-opacity:1;stroke:none;stroke-width:1;stroke-linecap:round;stroke-linejoin:miter;stroke-miterlimit:4;stroke-dasharray:none;stroke-opacity:1"
           d="m 674.801,512.79071 z m 0,0 0,32.03742 -32.03742,0 0,-32.03742 z m -32.03742,0 z"
           id="rect4153-3-6-7-5-0-6-8-2-5-9"
           inkscape:connector-curvature="0"
           sodipodi:nodetypes="ccccccccc" />
        <path
           style="opacity:1;fill:#f47000;fill-opacity:1;stroke:none;stroke-width:1;stroke-linecap:round;stroke-linejoin:miter;stroke-miterlimit:4;stroke-dasharray:none;stroke-opacity:1"
           d="m 738.87584,480.75329 z m 0,0 0,32.03742 -32.03742,0 0,-32.03742 z m -32.03742,0 z"
           id="rect4153-3-6-7-5-0-6-8-2-5-9-2-2"
           inkscape:connector-curvature="0"
           sodipodi:nodetypes="ccccccccc" />
      </g>
      <path
         inkscape:connector-curvature="0"
         id="rect4153-8"
         d="m 529.43054,667.49107 0,32.03906 -32.03711,0 0,32.03711 32.03711,0 0,32.03711 32.03711,0 0,-32.03711 32.03711,0 0,-32.03711 -32.03711,0 0,-32.03906 -32.03711,0 z"
         style="opacity:1;fill:#ffffff;fill-opacity:1;stroke:none;stroke-width:1;stroke-linecap:round;stroke-linejoin:miter;stroke-miterlimit:4;stroke-dasharray:none;stroke-opacity:1" />
    </g>
  </g>
</svg>
